<?xml version="1.0" encoding="UTF-8" standalone="no"?>
<!-- Created with Inkscape (http://www.inkscape.org/) -->

<svg
   version="1.1"
   id="svg265"
   width="104"
   height="64"
   viewBox="0 0 104.00001 64"
   sodipodi:docname="logo.svg"
   inkscape:version="1.2.2 (b0a8486541, 2022-12-01)"
   xmlns:inkscape="http://www.inkscape.org/namespaces/inkscape"
   xmlns:sodipodi="http://sodipodi.sourceforge.net/DTD/sodipodi-0.dtd"
   xmlns="http://www.w3.org/2000/svg"
   xmlns:svg="http://www.w3.org/2000/svg">
  <defs
     id="defs269" />
  <sodipodi:namedview
     id="namedview267"
     pagecolor="#ffffff"
     bordercolor="#666666"
     borderopacity="1.0"
     inkscape:showpageshadow="2"
     inkscape:pageopacity="0.0"
     inkscape:pagecheckerboard="0"
     inkscape:deskcolor="#d1d1d1"
     showgrid="false"
     inkscape:zoom="16"
     inkscape:cx="67.28125"
     inkscape:cy="15.71875"
     inkscape:window-width="3836"
     inkscape:window-height="2131"
     inkscape:window-x="0"
     inkscape:window-y="0"
     inkscape:window-maximized="1"
     inkscape:current-layer="g2735" />
  <g
     inkscape:groupmode="layer"
     inkscape:label="Image"
     id="g271">
    <g
       id="g2735"
       style="stroke-width:23.2184;stroke-dasharray:none"
       transform="matrix(0.13354553,0,0,0.12501062,-17.587657,-2.9864693)">
      <path
         style="fill:#ffffff;fill-opacity:1;stroke:#000000;stroke-width:23.2184;stroke-dasharray:none;stroke-opacity:1"
         d="m 312.68029,399.08664 -10.54709,59.66262 c 0,0 0.51207,10.77199 20.57577,11.63224 28.06803,1.20345 31.02158,-6.17114 31.02158,-6.17114 l 36.64327,-70.18226 z"
         id="path2716"
         sodipodi:nodetypes="ccsccc" />
      <path
         style="fill:#ffffff;fill-opacity:1;stroke:#000000;stroke-width:23.2184;stroke-dasharray:none;stroke-opacity:1"
         d="M 646.00931,111.63469 846.02362,68.209454 c 0,0 13.79275,0.04644 21.40576,28.052222 9.79468,36.031414 -6.24761,39.337254 -6.24761,39.337254 l -214.83949,50.6142 z"
         id="path2724"
         sodipodi:nodetypes="ccsccc" />
      <path
         style="fill:#ffffff;fill-opacity:1;stroke:#000000;stroke-width:23.2184;stroke-linecap:round;stroke-dasharray:none;stroke-opacity:1"
         d="m 625.18117,140.97731 c 0,0 -6.032,-28.1545 15.86766,-27.61614 21.73323,0.53427 26.60854,31.52044 26.60854,31.52044 l 31.26654,154.62595 -45.14695,22.15521 z"
         id="path2722"
         sodipodi:nodetypes="cscccc" />
      <path
         style="fill:#ffffff;fill-opacity:1;stroke:#000000;stroke-width:23.2184;stroke-dasharray:none;stroke-opacity:1"
         d="m 608.26481,292.20208 53.97129,-11.29929 c 0,0 28.19134,-5.86101 36.39564,19.00306 10.02577,30.38425 -12.08046,39.21985 -12.08046,39.21985 l -73.53497,23.60442 z"
         id="path2720"
         sodipodi:nodetypes="ccsccc" />
      <path
         style="fill:#ffffff;fill-opacity:1;stroke:#000000;stroke-width:23.2184;stroke-dasharray:none;stroke-opacity:1"
         d="m 224.78322,305.90651 380.64211,-33.7505 c 0,0 20.28534,-0.88254 24.08905,64.60594 3.39346,58.42529 -23.10262,59.3172 -23.10262,59.3172 L 226.6347,425.34248 Z"
         id="path1204"
         sodipodi:nodetypes="ccsccc" />
      <path
         style="fill:#ffffff;fill-opacity:1;stroke:#000000;stroke-width:23.2184;stroke-dasharray:none;stroke-opacity:1"
         d="m 235.58492,236.72223 c -34.53002,1.91486 -63.84101,76.84656 -64.0398,112.78308 -0.28049,50.7041 14.31703,145.3681 64.45173,137.78547 34.38867,-5.20112 39.981,-88.33446 44.62369,-136.03786 3.97368,-40.82942 -14.86838,-116.20361 -45.03562,-114.53069 z"
         id="path498"
         sodipodi:nodetypes="sssss" />
      <path
         style="fill:#ffffff;fill-opacity:1;stroke:#000000;stroke-width:23.2184;stroke-dasharray:none;stroke-opacity:1"
         d="m 328.7667,293.55042 c 0,0 76.42246,59.10081 120.28079,54.84253 35.07657,-3.40565 85.96261,-61.5476 85.96261,-61.5476 l 16.25262,-139.67376 c 0,0 7.12867,-55.770521 -118.9143,-46.74091 -139.26225,9.97663 -127.65943,63.2424 -127.65943,63.2424 z"
         id="path2712"
         sodipodi:nodetypes="csccscc" />
      <path
         style="fill:#ffffff;fill-opacity:1;stroke:#000000;stroke-width:23.2184;stroke-dasharray:none;stroke-opacity:1"
         d="m 304.29034,164.30001 c 0,0 15.0163,56.48471 135.11094,42.07357 108.58199,-13.02965 111.65151,-57.92734 111.65151,-57.92734"
         id="path2714"
         sodipodi:nodetypes="csc" />
      <path
         style="fill:#ffffff;fill-opacity:1;stroke:#000000;stroke-width:23.2184;stroke-dasharray:none;stroke-opacity:1"
         d="m 472.50182,376.70597 37.04075,121.37533 c 0,0 -0.93265,7.84829 26.48394,0 21.44867,-6.13991 18.8853,-18.5168 18.8853,-18.5168 L 534.8453,366.7631 c 0,0 -4.63019,-10.31299 -36.36823,-4.97329 -30.84708,5.18979 -25.97525,14.91616 -25.97525,14.91616 z"
         id="path2718"
         sodipodi:nodetypes="ccsccsc" />
    </g>
  </g>
</svg>
